<?xml version="1.0" encoding="UTF-8"?>
<svg id="Layer_1" xmlns="http://www.w3.org/2000/svg" version="1.1" viewBox="0 0 160 160">
  <!-- Generator: Adobe Illustrator 30.3.0, SVG Export Plug-In . SVG Version: 2.1.3 Build 182)  -->
  <defs>
    <style>
      .st0 {
        stroke-width: 2.2px;
      }

      .st0, .st1 {
        fill: #fff;
        stroke: #000;
        stroke-miterlimit: 10;
      }

      .st1 {
        stroke-width: .75px;
      }
    </style>
  </defs>
  <g>
    <path class="st0" d="M39.58,62.34c.03,1.68.21,2.5,1.31,3.28.81.58,1.38.89,1.41,2.31.03,1.36,0,4.19-7.87,4.29-1.76.02-6.81-.03-6.94-3.35-.15-3.81,2.8.29,2.58-10.25-.06-2.8-.53-2.63-2.52-2.3-5.55.93-5.02,1.08-4.94,5.42.12,6.6,2.53,3.73,2.59,6.95.07,3.46-5.76,3.75-7.68,3.79-1.84.03-7.38-.02-7.39-2.79,0-.85.59-1.43,1.26-1.83,1.42-.84,1.93-.78,1.86-9.71-.09-11.37-.24-10.4-1.65-10.64-.57-.09-1.26-.16-1.26-.98,0-3.15,6.32-6.58,8.47-7.53,1.62-.71,6.13-2.29,6.19.69.03,1.54-.62,2.34-1.51,3.3-.94,1.01-1.19,1.66-1.11,5.95.05,2.7,1.06,2.1,2.95,1.64.8-.19,1.21-.29,2.01-.47,2.61-.6,2.52-1.08,2.49-2.69-.12-5.66-.8-5.83-1.32-6.03-.76-.34-1.48-.57-1.5-1.88-.02-.96-.29-3.96,7.62-6.43,1.87-.58,7.2-2,7.28,1.98.03,1.25-.4,2.25-1.19,2.95-1.13,1.01-1.63.94-1.45,9.82.12,5.81.18,8.71.3,14.52Z"/>
    <path class="st0" d="M63.96,56.44c.11,10.94,2.47,4.91,2.5,8.28.03,3.56-3.06,7.45-5.98,7.46-3.16.02-3.29-3.09-4.29-3.07-.48,0-1.02.8-1.86,1.54-.87.76-2.06,1.58-3.9,1.6-3.32.02-6.69-2.46-6.8-8.13-.08-4.06,2.54-9.47,9.63-10.04,1.25-.1,1.82-.02,1.78-2.2-.03-2-.13-6.17-2-5.96-2.43.27-2.56,6.71-6.14,7.1-1.29.14-2.28-1.08-2.31-2.92-.09-4.9,6.66-9.2,10.52-9.68,2.31-.28,8.68.49,8.78,9.81.03,2.49.04,3.73.06,6.22ZM51.95,62.38c.03,1.55.62,3.2,1.78,3.17,1.53-.05,1.61-2.54,1.58-4.35-.02-1.33,0-2.85-1.13-2.78-1.37.08-2.26,2.06-2.23,3.97Z"/>
    <path class="st0" d="M78.75,41.81c0,.32-.04,1.01.29,1.01.2,0,.89-1.02,1.92-1.96,1.06-.98,2.5-1.94,4.3-1.9,4.34.11,7.97,5.93,7.9,14.18-.09,10.69-5.29,18.99-12.17,18.99-5.04,0-7.43-4.1-8.07-4.09-.64,0-1.28.95-2.6.96-.56,0-1.2-.24-1.21-1.25,0-1,.78-3.02.73-11.19-.04-6.69-.07-10.03-.11-16.72-.02-3.65-3.08-1.83-3.11-5.39-.04-4.19,7.93-7.53,11.35-7.58,1.11-.01,1.07,1.32,1.03,2.71-.1,4.89-.14,7.33-.24,12.22ZM80.83,48.64c-1.79,0-1.99,2.28-1.99,4.43,0,12.28.45,13.29,2.06,13.3,2.65,0,3.11-4.74,3.12-7.96,0-2.97-.5-9.76-3.19-9.77Z"/>
    <path class="st0" d="M106.11,60.24c-.11,7.11,2.3,4.61,2.24,7.77-.07,4.05-5.15,4.02-6.95,4.01-6.89-.04-7.14-2.47-7.13-3.97.02-2.25,1.68-2.35,2.17-4.26.55-2.15.69-11.16.3-13.46-.36-2.16-2.42-1.63-2.39-4.44.04-4.43,10.4-5.31,10.8-5.26,1.22.15,1.24,1.54,1.22,2.81-.11,6.72-.16,10.08-.26,16.8ZM98.39,37.92c-1.71-.16-3.54-1.49-3.51-4.54.04-4.12,5.47-5.19,7.56-4.88,1.64.24,3.95,1.42,3.9,4.43-.07,4.7-5.62,5.22-7.95,5Z"/>
    <path class="st0" d="M120.96,45.63c0,.28-.06.88.26.94.2.04.89-.73,1.91-1.35,1.05-.63,2.47-1.16,4.22-.74,4.21,1.01,7.66,6.44,7.53,12.98-.16,8.47-5.4,14.98-12.28,14.91-5.04-.05-7.33-3.82-7.97-3.84s-1.3.83-2.62.8c-.56-.01-1.2-.26-1.18-1.21.02-.94.85-2.8.99-10.43.11-6.25.17-9.37.28-15.62.06-3.41-3-2.36-2.94-5.75.07-3.99,7.97-4.98,11.3-4.07,1.08.29,1.02,1.46.95,2.67-.19,4.27-.28,6.41-.46,10.7ZM122.88,51.96c-1.76-.28-2,1.71-2.04,3.6-.22,10.81.2,11.72,1.8,11.8,2.64.12,3.16-3.88,3.22-6.62.05-2.52-.34-8.37-2.98-8.78Z"/>
    <path class="st0" d="M147.56,64.31c-.03,4.98,2.31,3.39,2.31,5.55,0,2.77-5.07,2.67-6.87,2.64-6.87-.12-7.11-2.03-7.09-3.2.03-1.76,1.68-1.76,2.17-3.19.55-1.61.7-8.5.33-10.33-.35-1.71-2.34-1.65-2.3-3.86.06-3.47,9.97-1.8,10.35-1.67,1.16.4,1.19,1.39,1.18,2.28-.03,4.71-.05,7.07-.08,11.78ZM140.01,46.62c-1.63-.54-3.38-2.01-3.33-4.4.06-3.22,5.19-2.41,7.14-1.52,1.53.7,3.69,2.29,3.67,4.41-.02,3.3-5.26,2.24-7.48,1.51Z"/>
  </g>
  <g>
    <path class="st0" d="M15.68,105.78c-1.22-.58-3.14-1.45-3.14-3.34,0-2.55,2.96.94,3.12-4.02.1-3.12.13-5.88.15-8.43.02-2.59-.17-5.05-.21-7.46-.07-3.6-3.54-2.09-3.54-4.41,0-2.97,6.27-3.03,8.23-3,7.99.13,8.36,1.83,8.32,3.53-.06,2.91-3.16.53-3.24,5.09-.11,6.18-.17,9.27-.28,15.44-.06,3.5.37,5.38,3.16,6.25,6.68,2.08,4.56-5.95,7.11-5.42,1.79.37,2.42,3.11,2.38,5.18-.09,4.25-2.43,9.01-4.25,8.41-.71-.24-1.29-.63-1.97-1.03-.74-.44-1.61-.92-2.94-1.4-5.24-1.91-7.83-2.99-12.91-5.4Z"/>
    <path class="st0" d="M58.6,104.19c-.14,10.66,2.38,5.11,2.34,8.41-.04,3.48-3.28,6.84-6.26,6.33-3.22-.56-3.25-3.61-4.26-3.81-.49-.09-1.06.56-1.93,1.08-.89.53-2.13,1.05-3.99.59-3.34-.83-6.61-4.21-6.5-9.61.08-3.87,2.88-8.1,9.97-7.14,1.25.17,1.81.35,1.85-1.75.03-1.93.06-5.96-1.78-6.14-2.41-.23-2.77,5.93-6.34,5.39-1.28-.2-2.22-1.62-2.18-3.38.1-4.68,6.92-7.15,10.74-6.91,2.29.15,8.55,1.8,8.43,10.89-.03,2.42-.05,3.63-.08,6.06ZM46.37,107.71c-.03,1.5.51,3.22,1.68,3.44,1.54.29,1.7-2.09,1.73-3.85.02-1.29.09-2.74-1.04-2.91-1.37-.21-2.33,1.48-2.37,3.32Z"/>
    <path class="st0" d="M74.81,106.62c-.01,4.19,1.13,5.22,2.24,5.24,1.27.02,2.01-1.42,2.75-1.42.82,0,1.4,1.75,1.4,2.88,0,4.14-4.7,7.79-8.86,7.58-2.1-.11-7.36-1.92-7.26-11.73.05-5.08.07-7.62.12-12.7.01-1.11.01-1.54-.19-1.74-.2-.19-.65-.09-1.58-.14-1.05-.05-1.58-.02-1.78-.34-.28-.44-.19-1.05-.17-2.45.01-.85-.1-1.53.39-2,3.72-3.38,5.57-5.15,9.26-8.73.93-.86.89-.68,2.09-.67,1.61.01,1.69-.24,1.68,2.64,0,1.94-.08,3.88.11,4.63.12.49.4.5,1.45.51,1.13,0,1.7.01,2.83.01,1.74,0,1.74.19,1.74,3.01,0,3.57-.28,3.83-1.86,3.82-1.12,0-1.68,0-2.8-.02-1.42-.02-1.5.04-1.51,2.29-.01,3.73-.02,5.59-.03,9.32Z"/>
    <path class="st0" d="M93.95,108.14c.07,7.29,2.45,4.42,2.49,7.68.04,4.18-5.18,4.68-7.03,4.8-7.09.45-7.38-2.16-7.39-3.66,0-2.26,1.69-2.42,2.17-4.36.54-2.19.54-11.3.13-13.59-.39-2.15-2.44-1.48-2.45-4.3,0-4.45,10.25-6.48,10.65-6.49,1.21-.03,1.26,1.39,1.28,2.68.06,6.9.09,10.34.15,17.24ZM85.77,86.35c-1.69.02-3.51-1.17-3.51-4.23,0-4.14,5.28-5.84,7.32-5.84,1.6,0,3.89.79,3.92,3.88.04,4.82-5.43,6.18-7.73,6.2Z"/>
    <path class="st0" d="M108.93,107.57c.1,5.71,1.46,4.46,1.5,6.68.06,3.63-5.35,4.55-7.02,4.81-1.63.26-5.81.81-5.85-2.87-.03-2.94,1.88-.52,1.93-6.51.02-3.66.03-5.5.05-9.16.03-4.51-2.43-2.89-2.46-6.14-.04-3.25,9.19-6.75,10-6.8.88-.05,1.47,1.03,1.49,2.21,0,.35-.03.71-.02,1.06.01.71.23,1.51.83,1.46.64-.06.98-1.34,1.77-2.6.76-1.22,1.97-2.52,4.25-2.7,8.3-.64,7.12,10.47,7.68,18.59.29,4.22,1.9,2.81,1.94,5.1.02.96.27,3.35-7.28,5.34-1.45.38-5.32,1.41-5.38-1.84-.04-2.08,1.32-1.39,1.44-5.15.13-4.11,1.08-13.41-2.7-12.99-2.58.29-2.27,4.31-2.22,6.96.03,1.81.05,2.72.08,4.53Z"/>
    <path class="st0" d="M145.65,95.01c.05,7.43,2.32,2.49,2.32,4.69,0,2.32-2.92,6.36-5.71,7.66-3.02,1.4-3.14-.96-4.11-.57-.46.19-.98,1-1.8,1.91-.84.94-2,2.07-3.8,2.76-3.25,1.24-6.59-.02-6.69-5.26-.08-3.76,2.56-8.86,9.48-10.52,1.22-.29,1.77-.34,1.74-2.04-.03-1.56-.12-4.82-1.93-4.51-2.37.4-2.5,5.82-6.03,6.52-1.27.25-2.25-.78-2.28-2.45-.09-4.45,6.58-8.06,10.34-8.53,2.26-.28,8.41-.21,8.45,6.13.01,1.69.02,2.53.03,4.22ZM134.05,102.73c.02,1.28.6,2.47,1.73,2.08,1.48-.51,1.56-2.5,1.54-3.92-.02-1.04,0-2.23-1.09-1.92-1.33.38-2.21,2.19-2.18,3.76Z"/>
  </g>
  <g>
    <path class="st1" d="M21.04,124.86c1.47,0,2.41.74,2.8.74.33,0,.42-.11.67-.11.63,0,1.44.95,1.44,2.61,0,.85-.51,1.57-1.4,1.57-1.54,0-1.15-2.65-3.82-2.65-1.15,0-1.63,1.08-1.63,1.9,0,2.22,1.19,4.11,3.28,4.11,1.91,0,2.19-1.04,2.65-1.04.44,0,.65.51.65.88,0,.66-.69,2.04-1.44,2.04-.51,0-1.56.87-3.33.87-3.15,0-5.73-2.49-5.73-5.5s2.9-5.43,5.85-5.43Z"/>
    <path class="st1" d="M34,132c0,2.64.9,1.2.9,2.01,0,.86-1.17,1.79-2.26,1.79-1.19,0-1.21-.76-1.59-.76-.18,0-.38.19-.71.38-.33.19-.78.39-1.47.39-1.24,0-2.49-.66-2.49-2.14,0-1.07,1.02-2.39,3.66-2.39.47,0,.68.03.68-.51,0-.5-.02-1.53-.71-1.53-.9,0-.99,1.62-2.32,1.62-.48,0-.84-.34-.84-.82,0-1.28,2.54-2.1,3.96-2.1.85,0,3.19.33,3.19,2.58v1.5ZM29.5,133.32c0,.39.21.81.64.81.57,0,.62-.62.62-1.06,0-.33.02-.71-.4-.71-.51,0-.85.48-.85.96Z"/>
    <path class="st1" d="M36.48,131.7c.03-.46-.12-.71-.6-.71-.18,0-.65.08-.65-.2,0-1.18-.09-1.32.36-1.35.18-.01.42-.03.42-.29,0-.29-.57-.84-.57-1.79,0-1.78,1.84-2.38,3.34-2.38,2.44,0,3.02,1.29,3.02,1.94s-.51,1.15-1.14,1.15c-1.31,0-1.47-1.35-2.32-1.35-.3,0-.51.24-.51.54,0,.95,1.56,1.26,1.83,1.92.04.12.06.17.21.17.63,0,1.48-.17,1.46.29l-.08,1.09c-.02.22-.18.25-.39.25-.88,0-1.03-.01-1.03.97,0,.42.04.95.15,1.33.27.9,1.33.42,1.33,1.35,0,.36-.03,1.09-3.4,1.09-.72,0-2.66-.01-2.66-1.07,0-.84,1.05-.45,1.11-1.36l.12-1.62Z"/>
    <path class="st1" d="M45.76,132.13c-.17,0-.41-.04-.41.21,0,.75.98,1.38,1.68,1.38,1.12,0,1.68-.67,1.99-.67s.58.46.58.75c0,1.16-2.11,2-3.46,2-2.7,0-4.09-1.95-4.09-3.88,0-2.31,1.96-3.99,4.21-3.99,2.55,0,3.67,1.96,3.67,3.09,0,.99-.45,1.12-.93,1.12h-3.25ZM43.98,126.61c0-.63,1.05-.84,1.05-1.25,0-.13-.12-.18-.12-.34,0-.38,1.02-.45,1.26-.45.46,0,1.83.15,1.83.84,0,.38-1.17,1.75-3.21,1.75-.39,0-.81-.07-.81-.55ZM47.07,130.24c0-.54-.33-.96-.88-.96-.5,0-.9.51-.9.99,0,.54.51.42.9.42s.88.09.88-.45Z"/>
    <path class="st1" d="M56.23,128.19c0-2.33-1.14-1.37-1.14-2.29,0-.83,1.17-.93,1.77-.93.31,0,.61.03.93.04.3.03.62.06.92.06.48,0,.96-.03,1.46-.06.48-.02.98-.04,1.46-.04,1.69,0,3.66.75,3.66,2.74,0,.9-.44,1.77-1.27,2.17-.13.08-.24.12-.24.3,0,.22.2.28.38.36,1.05.39,1.52,1.08,1.73,2.7.18,1.39,1.15.55,1.15,1.47,0,.57-.69,1.17-2.38,1.17-2.4,0-2.7-1.38-3.16-3.36-.17-.69-.42-1.37-1.25-1.37-.33,0-.45.04-.45.99,0,.43.03,1.03.1,1.46.12.69.89.48.89,1.2,0,.54-.38.95-2.81.95-.72,0-2.85,0-2.85-1.09,0-.78,1.12-.24,1.12-2.19v-4.27ZM59.71,128.85c-.03.39-.1.72.39.72.98,0,1.29-.54,1.29-1.47,0-.74-.18-1.49-1.05-1.49-.56,0-.54.34-.57.81l-.06,1.43Z"/>
    <path class="st1" d="M71.08,132.13c-.17,0-.41-.04-.41.21,0,.75.98,1.38,1.68,1.38,1.12,0,1.68-.67,2-.67s.58.46.58.75c0,1.16-2.12,2-3.47,2-2.7,0-4.09-1.95-4.09-3.88,0-2.31,1.96-3.99,4.21-3.99,2.55,0,3.68,1.96,3.68,3.09,0,.99-.45,1.12-.93,1.12h-3.25ZM72.39,130.24c0-.54-.33-.96-.89-.96-.5,0-.9.51-.9.99,0,.54.51.42.9.42s.89.09.89-.45Z"/>
    <path class="st1" d="M79.81,128.01c.27.04.51.1.62.1.15,0,.27-.04.4-.1.14-.05.27-.09.41-.09.69,0,1.38,1.38,1.38,2,0,.41-.34.71-.74.71-.85,0-1.33-1.18-1.99-1.18-.27,0-.54.22-.54.51,0,.96,3.3,1.14,3.3,3.46,0,1.41-1.37,2.38-2.92,2.38-.3,0-.74-.04-1.11-.1-.38-.05-.71-.09-.79-.09-.1,0-.2.02-.3.03-.09.01-.18.03-.29.03-.3,0-.45-.04-.66-.29-.38-.42-.75-1.28-.75-1.84,0-.39.14-.71.57-.71.66,0,1.26,1.48,2.1,1.48.3,0,.58-.15.58-.48,0-.88-2.94-.99-2.94-3.46,0-1.5,1.23-2.45,2.77-2.45.3,0,.62.03.9.09Z"/>
    <path class="st1" d="M87.85,132.34c0,1,.42,1.25.83,1.25.46,0,.74-.34,1-.34.3,0,.51.42.51.69,0,.99-1.71,1.86-3.23,1.86-.76,0-2.68-.33-2.68-2.71v-3.09c0-.27,0-.38-.08-.42s-.24-.01-.58-.01c-.39,0-.58.01-.66-.06-.1-.1-.08-.25-.08-.6,0-.21-.04-.38.14-.5l3.42-2.17c.34-.21.33-.17.78-.17.6,0,.63-.06.63.63,0,.46-.03.93.05,1.11.04.12.15.12.54.12h1.05c.64,0,.64.04.64.72,0,.85-.1.92-.69.92h-1.04c-.53,0-.56.01-.56.55v2.23Z"/>
    <path class="st1" d="M98.13,132c0,2.64.9,1.2.9,2.01,0,.86-1.17,1.79-2.26,1.79-1.18,0-1.21-.76-1.59-.76-.18,0-.38.19-.71.38-.33.19-.78.39-1.47.39-1.25,0-2.49-.66-2.49-2.14,0-1.07,1.02-2.39,3.66-2.39.46,0,.67.03.67-.51,0-.5-.01-1.53-.71-1.53-.9,0-.99,1.62-2.33,1.62-.48,0-.84-.34-.84-.82,0-1.28,2.54-2.1,3.96-2.1.86,0,3.2.33,3.2,2.58v1.5ZM93.63,133.32c0,.39.21.81.64.81.57,0,.62-.62.62-1.06,0-.33.01-.71-.41-.71-.51,0-.85.48-.85.96Z"/>
    <path class="st1" d="M103.75,132.34c0,.6.04,1.53.86,1.53,1.08,0,.93-1.41.93-2.13,0-.5.01-1.14-.06-1.62-.12-.75-.86-.5-.86-1.12,0-.88,3.01-1.04,3.58-1.04.54,0,.76.32.76.84,0,.48-.03.94-.03,1.42v3.01c0,.9.82.48.82,1.2,0,1.02-2.65,1.3-3.48,1.3-1.16,0-.39-.9-.99-.9-.17,0-.41.23-.76.45-.36.23-.84.45-1.5.45-2.85,0-2.61-2.25-2.61-4.5s-1.03-1.29-1.03-2.28,3.78-1.01,3.9-1.01c.42,0,.46.2.46.57v3.81Z"/>
    <path class="st1" d="M111.09,131.04c0-1.47-.93-.64-.93-1.56,0-1.19,3.51-1.52,3.64-1.52.57,0,.58.15.65.66.01.18,0,.53.25.53.36,0,.58-1.19,1.88-1.19,1,0,1.66.75,1.66,1.74s-.85,1.8-1.84,1.8-1.25-.85-1.63-.85c-.42,0-.34,1-.34,1.27,0,.45.04,1.08.12,1.65.09.66,1.23.25,1.23,1.16s-1.32,1.02-2.97,1.02c-.69,0-2.73.03-2.73-1,0-.63.69-.63.85-1.16.12-.38.17-1.23.17-1.65v-.9Z"/>
    <path class="st1" d="M126.18,132c0,2.64.9,1.2.9,2.01,0,.86-1.17,1.79-2.26,1.79-1.19,0-1.21-.76-1.59-.76-.18,0-.38.19-.71.38-.33.19-.78.39-1.47.39-1.25,0-2.49-.66-2.49-2.14,0-1.07,1.02-2.39,3.66-2.39.46,0,.67.03.67-.51,0-.5-.01-1.53-.71-1.53-.9,0-.99,1.62-2.33,1.62-.48,0-.84-.34-.84-.82,0-1.28,2.54-2.1,3.96-2.1.86,0,3.2.33,3.2,2.58v1.5ZM121.68,133.32c0,.39.21.81.64.81.57,0,.62-.62.62-1.06,0-.33.01-.71-.41-.71-.51,0-.85.48-.85.96Z"/>
    <path class="st1" d="M131.76,133.08c0,1.46.51,1.2.51,1.77,0,.93-1.99.9-2.61.9s-2.13,0-2.13-.9c0-.72.69-.07.73-1.54l.06-2.25c.03-1.11-.88-.75-.88-1.54s3.45-1.54,3.75-1.54c.33,0,.54.29.54.58,0,.09-.01.18-.01.27,0,.18.08.39.3.39.24,0,.38-.31.67-.63.3-.3.75-.62,1.61-.62,3.1,0,2.58,3.04,2.73,5.33.08,1.18.69.92.69,1.56,0,.27.06.9-2.76.9-.54,0-1.98.03-1.98-.81,0-.54.5-.29.57-1.26.08-1.06.5-3.46-.92-3.46-.96,0-.87,1.04-.87,1.71v1.16Z"/>
    <path class="st1" d="M142.72,132.34c0,1,.42,1.25.83,1.25.46,0,.74-.34,1-.34.3,0,.51.42.51.69,0,.99-1.71,1.86-3.23,1.86-.76,0-2.68-.33-2.68-2.71v-3.09c0-.27,0-.38-.08-.42s-.24-.01-.58-.01c-.39,0-.58.01-.66-.06-.1-.1-.08-.25-.08-.6,0-.21-.04-.38.14-.5l3.42-2.17c.34-.21.33-.17.78-.17.6,0,.63-.06.63.63,0,.46-.03.93.05,1.11.04.12.15.12.54.12h1.05c.64,0,.64.04.64.72,0,.85-.1.92-.69.92h-1.04c-.53,0-.56.01-.56.55v2.23Z"/>
  </g>
</svg>